<?xml version="1.0" encoding="UTF-8" standalone="no"?>
<svg xmlns:svg="http://www.w3.org/2000/svg" xmlns="http://www.w3.org/2000/svg" version="1.1" width="230px" height="428px" viewBox="0 0 58 107">
	<defs/>
	<rect x="0" y="0" width="150" height="200" style="fill:#ffffff; stroke:none;"/>
	<g transform="translate(24,45)">
		<g transform="matrix(1,0,0,-1,-24,60)" id="Name">
			<path d="M 63.44,74 V 82.211 H 64.987 C 65.6534,82.211 66.2345,82.1396 66.7304,81.9968 67.2262,81.854 67.6387,81.6279 67.968,81.3185 68.2972,81.0091 68.5411,80.6065 68.6998,80.1107 68.8585,79.6148 68.9378,79.0139 68.9378,78.3078 68.9378,77.5541 68.8426,76.9056 68.6522,76.3622 68.4618,75.8187 68.1921,75.3725 67.843,75.0234 67.4939,74.6743 67.0675,74.4165 66.5638,74.2499 66.06,74.0833 65.4947,74 64.868,74 H 63.44 z M 64.4753,81.3899 V 74.8568 H 64.868 C 65.344,74.8568 65.7645,74.9183 66.1294,75.0413 66.4943,75.1642 66.8037,75.3626 67.0576,75.6363 67.3115,75.91 67.5039,76.267 67.6348,76.7073 67.7657,77.1476 67.8311,77.6811 67.8311,78.3078 67.8311,78.8869 67.7676,79.3729 67.6407,79.7656 67.5138,80.1583 67.3293,80.4756 67.0874,80.7176 66.8454,80.9595 66.5479,81.1321 66.1949,81.2352 65.8418,81.3383 65.4392,81.3899 64.987,81.3899 H 64.4753 z M 69.9017,75.4518 C 69.9017,75.785 69.9652,76.0627 70.0921,76.2848 70.219,76.5069 70.3896,76.6874 70.6038,76.8263 70.818,76.9651 71.0699,77.0643 71.3595,77.1238 71.649,77.1833 71.9564,77.213 72.2817,77.213 H 72.5792 V 77.7604 C 72.5792,78.2443 72.4939,78.5775 72.3234,78.76 72.1528,78.9425 71.9128,79.0337 71.6034,79.0337 71.3178,79.0337 71.0798,78.9722 70.8894,78.8493 70.699,78.7263 70.5483,78.6172 70.4372,78.522 L 70.0326,79.1646 C 70.0961,79.2281 70.1774,79.2995 70.2766,79.3788 70.3757,79.4581 70.4967,79.5335 70.6395,79.6049 70.7823,79.6763 70.9449,79.7358 71.1274,79.7834 71.3099,79.831 71.5161,79.8548 71.7462,79.8548 72.3333,79.8548 72.7775,79.6922 73.079,79.3669 73.3805,79.0416 73.5312,78.518 73.5312,77.7961 V 75.19 C 73.5312,74.9441 73.5391,74.7041 73.555,74.4701 73.5709,74.236 73.5867,74.0793 73.6026,74 H 72.6863 L 72.6506,74.6307 H 72.6268 C 72.5951,74.5593 72.5475,74.478 72.484,74.3868 72.4205,74.2955 72.3412,74.2122 72.246,74.1368 72.1508,74.0615 72.0358,73.996 71.9009,73.9405 71.766,73.885 71.6074,73.8572 71.4249,73.8572 71.2107,73.8572 71.0104,73.8969 70.824,73.9762 70.6375,74.0555 70.4749,74.1666 70.3361,74.3094 70.1972,74.4522 70.0901,74.6208 70.0148,74.8152 69.9394,75.0095 69.9017,75.2217 69.9017,75.4518 z M 71.6272,74.6783 C 71.7621,74.6783 71.8811,74.6981 71.9842,74.7378 72.0873,74.7775 72.1766,74.8251 72.252,74.8806 72.3273,74.9361 72.3908,74.9976 72.4424,75.0651 72.4939,75.1325 72.5395,75.19 72.5792,75.2376 V 76.499 L 72.2698,76.4871 C 71.8097,76.4712 71.4606,76.3919 71.2226,76.2491 70.9846,76.1063 70.8656,75.8762 70.8656,75.5589 70.8656,75.2654 70.933,75.0452 71.0679,74.8985 71.2028,74.7517 71.3892,74.6783 71.6272,74.6783 z M 77.4463,78.5577 C 77.3828,78.6291 77.2678,78.7263 77.1012,78.8493 76.9346,78.9722 76.7164,79.0337 76.4467,79.0337 76.1928,79.0337 75.9985,78.9742 75.8636,78.8552 75.7287,78.7362 75.6613,78.5934 75.6613,78.4268 75.6613,78.2126 75.7228,78.0361 75.8458,77.8973 75.9687,77.7584 76.1571,77.6097 76.411,77.451 L 76.768,77.2368 C 77.1567,77.0067 77.4622,76.7588 77.6843,76.4931 77.9064,76.2273 78.0175,75.8842 78.0175,75.4637 78.0175,75.0115 77.8608,74.6307 77.5475,74.3213 77.2341,74.0119 76.7839,73.8572 76.1968,73.8572 75.9667,73.8572 75.7644,73.881 75.5899,73.9286 75.4154,73.9762 75.2626,74.0317 75.1318,74.0952 75.0009,74.1587 74.8918,74.2281 74.8045,74.3034 74.7172,74.3788 74.6458,74.4482 74.5903,74.5117 L 75.0544,75.2733 C 75.102,75.2257 75.1595,75.1702 75.227,75.1067 75.2944,75.0432 75.3757,74.9818 75.4709,74.9223 75.5661,74.8628 75.6732,74.8132 75.7922,74.7735 75.9112,74.7338 76.05,74.714 76.2087,74.714 76.4943,74.714 76.7125,74.7775 76.8632,74.9044 77.0139,75.0313 77.0893,75.186 77.0893,75.3685 77.0893,75.5034 77.0715,75.6204 77.0358,75.7196 77.0001,75.8187 76.9465,75.908 76.8751,75.9873 76.8037,76.0666 76.7164,76.142 76.6133,76.2134 76.5102,76.2848 76.3912,76.3641 76.2563,76.4514 L 75.8993,76.6775 C 75.5423,76.9076 75.2626,77.1495 75.0604,77.4034 74.8581,77.6573 74.7569,77.9825 74.7569,78.3792 74.7569,78.5934 74.7986,78.7898 74.8819,78.9683 74.9652,79.1467 75.0822,79.3014 75.2329,79.4324 75.3836,79.5633 75.5602,79.6664 75.7625,79.7418 75.9648,79.8171 76.1809,79.8548 76.411,79.8548 76.6331,79.8548 76.8235,79.833 76.9822,79.7894 77.1409,79.7457 77.2777,79.6902 77.3928,79.6228 77.5078,79.5553 77.603,79.4879 77.6784,79.4205 77.7537,79.353 77.8152,79.2955 77.8628,79.2479 L 77.4463,78.5577 z M 67.7478,68.1167 C 67.7478,67.8311 67.7121,67.5812 67.6407,67.367 67.5693,67.1528 67.4721,66.9684 67.3492,66.8137 67.2262,66.659 67.0834,66.534 66.9208,66.4388 66.7581,66.3436 66.5895,66.2722 66.415,66.2246 V 66.2008 C 66.6292,66.1611 66.8295,66.0858 67.0159,65.9747 67.2024,65.8636 67.365,65.7248 67.5039,65.5582 67.6427,65.3916 67.7538,65.1953 67.8371,64.9692 67.9204,64.743 67.962,64.4951 67.962,64.2254 67.962,63.9001 67.9065,63.6026 67.7954,63.3329 67.6843,63.0632 67.5118,62.8291 67.2777,62.6308 67.0437,62.4325 66.7482,62.2778 66.3912,62.1667 66.0342,62.0556 65.6098,62.0001 65.1179,62.0001 H 63.44 V 70.2111 H 65.0227 C 65.5066,70.2111 65.9212,70.1615 66.2663,70.0624 66.6114,69.9632 66.895,69.8224 67.1171,69.6399 67.3392,69.4574 67.4999,69.2373 67.5991,68.9795 67.6982,68.7216 67.7478,68.434 67.7478,68.1167 z M 66.7006,68.081 C 66.7006,68.4618 66.5657,68.7752 66.296,69.0211 66.0263,69.267 65.6018,69.39 65.0227,69.39 H 64.4753 V 66.5578 H 65.0108 C 65.5661,66.5578 65.9866,66.6927 66.2722,66.9624 66.5578,67.2321 66.7006,67.605 66.7006,68.081 z M 66.8553,64.2968 C 66.8553,64.7411 66.7105,65.0921 66.421,65.35 66.1314,65.6078 65.7169,65.7367 65.1774,65.7367 H 64.4753 V 62.8569 H 65.1179 C 65.7288,62.8569 66.1711,62.9779 66.4448,63.2199 66.7185,63.4618 66.8553,63.8208 66.8553,64.2968 z M 73.2337,62.0001 H 72.3531 V 62.6427 H 72.3293 C 72.3055,62.5951 72.2539,62.5257 72.1746,62.4345 72.0953,62.3432 71.9941,62.256 71.8712,62.1727 71.7482,62.0894 71.5994,62.016 71.4249,61.9525 71.2504,61.889 71.056,61.8573 70.8418,61.8573 70.5879,61.8573 70.3599,61.895 70.1576,61.9703 69.9553,62.0457 69.7827,62.1667 69.6399,62.3333 69.4971,62.4999 69.388,62.7161 69.3127,62.9819 69.2373,63.2476 69.1996,63.5749 69.1996,63.9636 V 67.7121 H 70.1635 V 64.035 C 70.1635,63.559 70.2409,63.2199 70.3956,63.0175 70.5503,62.8153 70.7902,62.7141 71.1155,62.7141 71.3932,62.7141 71.6272,62.7835 71.8176,62.9224 72.008,63.0612 72.1587,63.198 72.2698,63.3329 V 67.7121 H 73.2337 V 62.0001 z M 77.8271,62.0001 V 65.6772 C 77.8271,66.1611 77.7458,66.5082 77.5832,66.7185 77.4205,66.9287 77.1726,67.0338 76.8394,67.0338 76.5538,67.0338 76.3158,66.9624 76.1254,66.8196 75.935,66.6768 75.7843,66.538 75.6732,66.4031 V 62.0001 H 74.7093 V 67.7121 H 75.5899 V 67.0695 H 75.6137 C 75.6375,67.1171 75.6891,67.1865 75.7684,67.2778 75.8477,67.369 75.9509,67.4563 76.0778,67.5396 76.2047,67.6229 76.3555,67.6962 76.53,67.7597 76.7045,67.8232 76.9029,67.8549 77.125,67.8549 77.3789,67.8549 77.6089,67.8172 77.8152,67.7419 78.0215,67.6665 78.196,67.5455 78.3388,67.3789 78.4816,67.2123 78.5927,66.9961 78.672,66.7304 78.7513,66.4646 78.791,66.1373 78.791,65.7486 V 62.0001 H 77.8271 z M 79.9691,64.7728 C 79.9691,65.3519 80.0445,65.8359 80.1952,66.2246 80.3459,66.6133 80.5403,66.9267 80.7783,67.1647 81.0163,67.4027 81.286,67.5713 81.5875,67.6705 81.889,67.7696 82.1904,67.8192 82.4919,67.8192 82.6744,67.8192 82.833,67.8053 82.9679,67.7775 83.1028,67.7498 83.2138,67.7161 83.3011,67.6764 V 70.4134 L 84.265,70.5205 V 62.0001 H 83.3844 V 62.607 H 83.3606 C 83.3368,62.5594 83.2932,62.494 83.2297,62.4107 83.1662,62.3274 83.079,62.2441 82.9679,62.1608 82.8568,62.0775 82.718,62.0061 82.5514,61.9465 82.3848,61.887 82.1904,61.8573 81.9683,61.8573 81.6986,61.8573 81.4427,61.9108 81.2008,62.018 80.9588,62.1251 80.7466,62.2956 80.5641,62.5297 80.3816,62.7637 80.2369,63.0652 80.1298,63.4341 80.0227,63.803 79.9691,64.2492 79.9691,64.7728 z M 82.2301,62.7141 C 82.3808,62.7141 82.5157,62.7339 82.6347,62.7736 82.7537,62.8133 82.8568,62.8629 82.9441,62.9224 83.0314,62.9819 83.1048,63.0433 83.1643,63.1068 83.2238,63.1703 83.2694,63.2258 83.3011,63.2734 V 66.7958 C 83.2138,66.8513 83.1127,66.8989 82.9977,66.9386 82.8826,66.9783 82.7378,66.9981 82.5633,66.9981 82.3412,66.9981 82.1329,66.9604 81.9386,66.8851 81.7442,66.8097 81.5756,66.6847 81.4328,66.5102 81.29,66.3357 81.177,66.1096 81.0937,65.8319 81.0104,65.5542 80.9687,65.2131 80.9687,64.8085 80.9687,64.4118 81.0024,64.0806 81.0699,63.8149 81.1373,63.5491 81.2305,63.3349 81.3495,63.1723 81.4685,63.0096 81.6034,62.8926 81.7541,62.8212 81.9048,62.7498 82.0635,62.7141 82.2301,62.7141 z M 89.4058,65.7843 C 89.4058,65.5384 89.3979,65.3262 89.382,65.1477 89.3661,64.9692 89.3503,64.8125 89.3344,64.6776 H 86.4189 C 86.4506,64.0033 86.5954,63.5074 86.8533,63.1901 87.1111,62.8728 87.482,62.7141 87.9659,62.7141 88.1325,62.7141 88.2832,62.7339 88.4181,62.7736 88.553,62.8133 88.67,62.8609 88.7692,62.9164 88.8683,62.9719 88.9516,63.0275 89.0191,63.083 89.0865,63.1385 89.1361,63.1822 89.1678,63.2139 L 89.5248,62.5356 C 89.4851,62.4959 89.4256,62.4384 89.3463,62.3631 89.267,62.2877 89.1599,62.2123 89.025,62.1369 88.8901,62.0616 88.7235,61.9961 88.5252,61.9406 88.3269,61.8851 88.0928,61.8573 87.8231,61.8573 87.4661,61.8573 87.1428,61.9168 86.8533,62.0358 86.5637,62.1548 86.3178,62.3393 86.1155,62.5892 85.9132,62.8391 85.7565,63.1564 85.6454,63.5412 85.5343,63.9259 85.4788,64.388 85.4788,64.9275 85.4788,65.4352 85.5363,65.8736 85.6514,66.2425 85.7664,66.6114 85.9231,66.9148 86.1214,67.1528 86.3197,67.3908 86.5498,67.5673 86.8116,67.6824 87.0734,67.7974 87.355,67.8549 87.6565,67.8549 88.2039,67.8549 88.6323,67.6824 88.9417,67.3373 89.2511,66.9922 89.4058,66.4745 89.4058,65.7843 z M 87.597,67.0695 C 87.2559,67.0695 86.9822,66.9267 86.7759,66.6411 86.5696,66.3555 86.4506,65.943 86.4189,65.4035 H 88.5014 C 88.5093,65.4432 88.5153,65.5007 88.5193,65.5761 88.5232,65.6514 88.5252,65.7327 88.5252,65.82 88.5252,66.2167 88.4459,66.5241 88.2872,66.7423 88.1285,66.9604 87.8985,67.0695 87.597,67.0695 z M 93.1543,66.5578 C 93.0908,66.6292 92.9758,66.7264 92.8092,66.8494 92.6426,66.9723 92.4244,67.0338 92.1547,67.0338 91.9008,67.0338 91.7065,66.9743 91.5716,66.8553 91.4367,66.7363 91.3693,66.5935 91.3693,66.4269 91.3693,66.2127 91.4308,66.0362 91.5538,65.8974 91.6767,65.7585 91.8651,65.6098 92.119,65.4511 L 92.476,65.2369 C 92.8647,65.0068 93.1702,64.7589 93.3923,64.4932 93.6144,64.2274 93.7255,63.8843 93.7255,63.4638 93.7255,63.0116 93.5688,62.6308 93.2555,62.3214 92.9421,62.012 92.4919,61.8573 91.9048,61.8573 91.6747,61.8573 91.4724,61.8811 91.2979,61.9287 91.1234,61.9763 90.9706,62.0318 90.8398,62.0953 90.7089,62.1588 90.5998,62.2282 90.5125,62.3035 90.4252,62.3789 90.3538,62.4483 90.2983,62.5118 L 90.7624,63.2734 C 90.81,63.2258 90.8675,63.1703 90.935,63.1068 91.0024,63.0433 91.0837,62.9819 91.1789,62.9224 91.2741,62.8629 91.3812,62.8133 91.5002,62.7736 91.6192,62.7339 91.758,62.7141 91.9167,62.7141 92.2023,62.7141 92.4205,62.7776 92.5712,62.9045 92.7219,63.0314 92.7973,63.1861 92.7973,63.3686 92.7973,63.5035 92.7795,63.6205 92.7438,63.7197 92.7081,63.8188 92.6545,63.9081 92.5831,63.9874 92.5117,64.0667 92.4244,64.1421 92.3213,64.2135 92.2182,64.2849 92.0992,64.3642 91.9643,64.4515 L 91.6073,64.6776 C 91.2503,64.9077 90.9706,65.1496 90.7684,65.4035 90.5661,65.6574 90.4649,65.9826 90.4649,66.3793 90.4649,66.5935 90.5066,66.7899 90.5899,66.9684 90.6732,67.1468 90.7902,67.3015 90.9409,67.4325 91.0916,67.5634 91.2682,67.6665 91.4705,67.7419 91.6728,67.8172 91.8889,67.8549 92.119,67.8549 92.3411,67.8549 92.5315,67.8331 92.6902,67.7895 92.8489,67.7458 92.9857,67.6903 93.1008,67.6229 93.2158,67.5554 93.311,67.488 93.3864,67.4206 93.4617,67.3531 93.5232,67.2956 93.5708,67.248 L 93.1543,66.5578 z M 94.5228,63.4519 C 94.5228,63.7851 94.5863,64.0628 94.7132,64.2849 94.8401,64.507 95.0107,64.6875 95.2249,64.8264 95.4391,64.9652 95.691,65.0644 95.9806,65.1239 96.2701,65.1834 96.5775,65.2131 96.9028,65.2131 H 97.2003 V 65.7605 C 97.2003,66.2444 97.115,66.5776 96.9445,66.7601 96.7739,66.9426 96.5339,67.0338 96.2245,67.0338 95.9389,67.0338 95.7009,66.9723 95.5105,66.8494 95.3201,66.7264 95.1694,66.6173 95.0583,66.5221 L 94.6537,67.1647 C 94.7172,67.2282 94.7985,67.2996 94.8977,67.3789 94.9968,67.4582 95.1178,67.5336 95.2606,67.605 95.4034,67.6764 95.566,67.7359 95.7485,67.7835 95.931,67.8311 96.1372,67.8549 96.3673,67.8549 96.9544,67.8549 97.3986,67.6923 97.7001,67.367 98.0016,67.0417 98.1523,66.5181 98.1523,65.7962 V 63.1901 C 98.1523,62.9442 98.1602,62.7042 98.1761,62.4702 98.192,62.2361 98.2078,62.0794 98.2237,62.0001 H 97.3074 L 97.2717,62.6308 H 97.2479 C 97.2162,62.5594 97.1686,62.4781 97.1051,62.3869 97.0416,62.2956 96.9623,62.2123 96.8671,62.1369 96.7719,62.0616 96.6569,61.9961 96.522,61.9406 96.3871,61.8851 96.2285,61.8573 96.046,61.8573 95.8318,61.8573 95.6315,61.897 95.4451,61.9763 95.2586,62.0556 95.096,62.1667 94.9572,62.3095 94.8183,62.4523 94.7112,62.6209 94.6359,62.8153 94.5605,63.0096 94.5228,63.2218 94.5228,63.4519 z M 96.2483,62.6784 C 96.3832,62.6784 96.5022,62.6982 96.6053,62.7379 96.7084,62.7776 96.7977,62.8252 96.8731,62.8807 96.9484,62.9362 97.0119,62.9977 97.0635,63.0652 97.115,63.1326 97.1606,63.1901 97.2003,63.2377 V 64.4991 L 96.8909,64.4872 C 96.4308,64.4713 96.0817,64.392 95.8437,64.2492 95.6057,64.1064 95.4867,63.8763 95.4867,63.559 95.4867,63.2655 95.5541,63.0453 95.689,62.8986 95.8239,62.7518 96.0103,62.6784 96.2483,62.6784 z M 102.115,66.8672 C 102.091,66.8831 102.04,66.9029 101.96,66.9267 101.881,66.9505 101.774,66.9624 101.639,66.9624 101.337,66.9624 101.102,66.8811 100.931,66.7185 100.76,66.5558 100.639,66.3793 100.568,66.1889 V 62.0001 H 99.6041 V 67.7121 H 100.485 V 66.9386 H 100.509 C 100.548,67.0497 100.6,67.1588 100.663,67.2659 100.727,67.373 100.806,67.4682 100.901,67.5515 100.996,67.6348 101.109,67.7002 101.24,67.7478 101.371,67.7954 101.528,67.8192 101.71,67.8192 101.845,67.8192 101.954,67.8073 102.038,67.7835 102.121,67.7597 102.186,67.7399 102.234,67.724 L 102.115,66.8672 z M 106.102,66.6054 C 106.078,66.6292 106.04,66.6649 105.989,66.7125 105.937,66.7601 105.871,66.8077 105.792,66.8553 105.713,66.9029 105.618,66.9446 105.507,66.9803 105.395,67.016 105.269,67.0338 105.126,67.0338 104.919,67.0338 104.727,66.9961 104.549,66.9208 104.37,66.8454 104.215,66.7244 104.085,66.5578 103.954,66.3912 103.85,66.175 103.775,65.9093 103.7,65.6435 103.662,65.3202 103.662,64.9394 103.662,64.5189 103.696,64.1659 103.763,63.8803 103.831,63.5947 103.924,63.3666 104.043,63.1961 104.162,63.0255 104.307,62.9025 104.477,62.8272 104.648,62.7518 104.836,62.7141 105.042,62.7141 105.336,62.7141 105.56,62.7657 105.715,62.8688 105.87,62.9719 105.979,63.0552 106.042,63.1187 L 106.435,62.4523 C 106.395,62.4047 106.338,62.3472 106.262,62.2798 106.187,62.2123 106.09,62.1469 105.971,62.0834 105.852,62.0199 105.707,61.9664 105.536,61.9227 105.366,61.8791 105.169,61.8573 104.947,61.8573 104.63,61.8573 104.332,61.9089 104.055,62.012 103.777,62.1151 103.535,62.2857 103.329,62.5237 103.123,62.7617 102.96,63.0711 102.841,63.4519 102.722,63.8327 102.662,64.3047 102.662,64.868 102.662,65.4154 102.734,65.8795 102.877,66.2603 103.019,66.6411 103.206,66.9485 103.436,67.1826 103.666,67.4166 103.922,67.5872 104.204,67.6943 104.485,67.8014 104.769,67.8549 105.054,67.8549 105.269,67.8549 105.457,67.8351 105.62,67.7954 105.782,67.7557 105.921,67.7062 106.036,67.6467 106.151,67.5872 106.246,67.5237 106.322,67.4563 106.397,67.3888 106.459,67.3313 106.506,67.2837 L 106.102,66.6054 z M 110.635,62.0001 V 65.6772 C 110.635,66.1611 110.554,66.5082 110.392,66.7185 110.229,66.9287 109.981,67.0338 109.648,67.0338 109.362,67.0338 109.124,66.9624 108.934,66.8196 108.743,66.6768 108.593,66.538 108.482,66.4031 V 62.0001 H 107.518 V 70.4134 L 108.482,70.5205 V 67.129 H 108.505 C 108.537,67.1766 108.587,67.2401 108.654,67.3194 108.722,67.3987 108.815,67.4781 108.934,67.5574 109.053,67.6367 109.198,67.7062 109.368,67.7657 109.539,67.8252 109.739,67.8549 109.969,67.8549 110.469,67.8549 110.865,67.6923 111.159,67.367 111.453,67.0417 111.599,66.5023 111.599,65.7486 V 62.0001 H 110.635 z M 114.003,62.0001 H 113.039 V 67.7121 H 114.003 V 62.0001 z M 113.527,69.0925 C 113.329,69.0925 113.17,69.156 113.051,69.2829 112.932,69.4098 112.873,69.5764 112.873,69.7827 112.873,69.981 112.932,70.1437 113.051,70.2706 113.17,70.3975 113.329,70.461 113.527,70.461 113.718,70.461 113.872,70.3975 113.991,70.2706 114.11,70.1437 114.17,69.981 114.17,69.7827 114.17,69.5764 114.11,69.4098 113.991,69.2829 113.872,69.156 113.718,69.0925 113.527,69.0925 z M 119.287,67.7121 117.526,62.0001 H 116.657 L 114.884,67.7121 H 115.919 L 116.752,64.5586 C 116.839,64.2413 116.915,63.9477 116.978,63.678 117.042,63.4083 117.081,63.1504 117.097,62.9045 H 117.121 C 117.137,63.1504 117.178,63.4043 117.246,63.6661 117.313,63.9279 117.391,64.2214 117.478,64.5467 L 118.359,67.7121 H 119.287 z"/>
		</g>
		<g transform="translate(-23,-43)" id="Adler-und-Saeulenelement">
			<path d="M 37.173,29.339 C 37.2,29.115 37.216,28.884 37.216,28.648 37.216,28.519 37.217,28.369 37.201,28.199 39.194,28.171 40.942,26.735 40.942,25.084 40.942,24.244 40.394,23.61 40.085,23.231 40.154,23.216 40.224,23.2 40.295,23.183 40.587,23.437 41.415,24.339 41.415,25.478 41.415,27.459 39.435,29.298 37.173,29.339 M 35.165,22.44 C 35.128,22.219 35.044,22.019 34.916,21.847 34.923,21.645 35.006,21.452 35.331,21.611 35.155,21.791 35.291,22.11 35.291,22.11 35.291,22.11 35.651,21.943 35.576,21.705 36.11,21.833 35.726,22.55 35.165,22.44 M 34.702,23.457 C 34.631,23.161 34.479,22.857 34.286,22.628 34.11,22.42 33.819,22.173 33.427,22.173 33.248,22.173 32.948,22.257 32.757,22.338 32.686,22.208 32.547,21.895 32.547,21.754 32.547,21.609 32.792,21.462 33.261,21.462 34.293,21.462 34.909,21.928 34.909,22.71 34.909,22.985 34.8,23.235 34.702,23.457 M 37.352,36.757 C 37.472,36.757 37.53,36.776 37.6,36.802 37.897,37.61 39.042,39.135 39.09,39.2 L 39.1,39.214 39.117,39.21 C 39.398,39.165 40.115,39.057 40.715,39.057 H 40.729 C 40.794,39.057 40.868,39.057 40.915,39.103 40.954,39.142 40.973,39.21 40.973,39.307 40.973,39.456 40.91,39.711 40.834,39.82 40.624,39.591 40.283,39.488 39.737,39.488 39.573,39.488 39.379,39.537 39.274,39.565 L 39.231,39.574 39.182,39.587 39.497,39.902 C 39.983,40.388 40.403,40.807 40.403,41.086 40.403,41.254 40.239,41.473 40.089,41.57 40.056,41.059 39.54,40.375 39.037,39.992 L 38.994,39.96 38.986,40.14 C 38.979,40.262 38.968,40.445 38.968,40.641 38.968,41.614 38.869,41.762 38.532,41.762 38.48,41.762 38.401,41.747 38.352,41.729 38.542,41.494 38.617,41.184 38.617,40.64 L 38.614,40.389 38.611,40.187 C 38.611,39.964 38.634,39.799 38.652,39.666 L 38.662,39.591 38.609,39.584 C 38.451,39.562 38.158,39.522 37.934,39.522 37.453,39.522 37.127,39.566 36.891,39.788 36.735,39.662 36.575,39.445 36.575,39.308 36.575,39.105 36.701,39.089 36.867,39.089 36.951,39.089 37.029,39.101 37.137,39.114 37.344,39.145 37.655,39.191 38.296,39.191 H 38.336 L 38.323,39.152 C 38.161,38.687 37.715,38.011 37,37.142 37.064,36.909 37.127,36.757 37.352,36.757 M 31.178,39.152 31.165,39.191 H 31.205 C 31.845,39.191 32.157,39.145 32.364,39.114 32.472,39.101 32.55,39.089 32.634,39.089 32.799,39.089 32.926,39.105 32.926,39.308 32.926,39.445 32.766,39.662 32.611,39.788 32.374,39.566 32.048,39.522 31.568,39.522 31.343,39.522 31.049,39.562 30.892,39.584 L 30.867,39.587 30.839,39.591 30.848,39.666 C 30.867,39.799 30.89,39.964 30.89,40.187 L 30.887,40.389 30.884,40.64 C 30.884,41.184 30.959,41.494 31.15,41.729 31.1,41.747 31.021,41.762 30.969,41.762 30.631,41.762 30.533,41.614 30.533,40.641 30.533,40.445 30.523,40.262 30.516,40.14 L 30.506,39.959 30.464,39.992 C 29.962,40.375 29.444,41.059 29.413,41.57 29.262,41.473 29.098,41.254 29.098,41.086 29.098,40.807 29.518,40.388 30.004,39.902 L 30.319,39.587 30.227,39.565 C 30.122,39.537 29.928,39.488 29.763,39.488 29.218,39.488 28.878,39.591 28.667,39.82 28.591,39.711 28.528,39.456 28.528,39.307 28.528,39.21 28.547,39.142 28.586,39.103 28.633,39.057 28.707,39.057 28.772,39.057 H 28.786 C 29.386,39.057 30.104,39.165 30.384,39.21 L 30.401,39.214 30.411,39.2 C 30.46,39.135 31.604,37.61 31.902,36.802 31.97,36.776 32.029,36.757 32.149,36.757 32.374,36.757 32.437,36.909 32.502,37.142 31.786,38.011 31.34,38.687 31.178,39.152 M 28.086,25.478 C 28.086,24.339 28.915,23.437 29.207,23.183 29.277,23.2 29.347,23.216 29.417,23.231 29.107,23.61 28.559,24.244 28.559,25.084 28.559,26.752 30.341,28.2 32.359,28.2 32.346,28.343 32.339,28.493 32.339,28.648 32.339,28.894 32.353,29.123 32.377,29.339 30.095,29.325 28.086,27.473 28.086,25.478 M 43.392,28.991 C 44.416,30.61 45.217,30.583 46.427,30.583 45.426,29.816 44.764,28.833 44.448,28.331 L 42.578,25.339 C 42.396,24.415 41.918,23.551 41.202,22.908 41.443,22.817 41.643,22.721 41.763,22.63 40.542,22.63 39.332,22.01 38.666,22.01 38.238,22.01 37.963,22.266 37.963,22.604 37.99,22.981 38.378,23.364 39.095,23.364 39.257,23.364 39.465,23.343 39.693,23.305 40.081,23.846 40.394,24.335 40.394,25.033 40.394,26.343 38.828,27.364 37.247,27.364 37.157,27.364 37.072,27.36 36.983,27.354 36.84,27.029 36.363,26.484 36.363,25.864 36.363,24.823 37.042,23.973 37.042,22.942 37.042,22.301 36.73,21.904 36.61,21.739 36.804,21.559 37.016,21.338 37.066,21.186 36.953,21.235 36.819,21.241 36.624,21.241 35.866,21.241 35.248,21.044 34.646,21.044 34.302,21.044 34.21,21.15 34.21,21.251 34.21,21.288 34.215,21.326 34.225,21.344 34.097,21.294 33.977,21.261 33.834,21.235 33.656,21.201 33.465,21.184 33.261,21.184 32.529,21.184 32.269,21.491 32.269,21.754 32.269,21.976 32.444,22.382 32.643,22.692 32.928,22.548 33.271,22.451 33.427,22.451 33.816,22.451 34.161,22.821 34.344,23.259 34.083,23.291 34.033,23.302 33.769,23.302 33.056,23.302 32.571,23.047 32.471,23.047 32.462,23.047 32.443,23.052 32.443,23.068 32.443,23.168 32.645,23.432 33.043,23.577 33.568,23.769 34.354,23.849 34.485,23.871 34.485,23.894 34.352,24.142 34.203,24.19 34.172,24.2 34.147,24.201 34.11,24.193 33.562,24.085 33.409,24.039 32.714,23.775 32.693,23.767 32.68,23.78 32.68,23.802 32.68,24.077 33.392,24.684 34.03,24.917 33.497,25.597 32.832,26.293 32.518,27.354 32.429,27.36 32.343,27.364 32.254,27.364 30.673,27.364 29.107,26.343 29.107,25.033 29.107,24.335 29.42,23.846 29.808,23.305 30.036,23.343 30.243,23.364 30.406,23.364 31.123,23.364 31.511,22.981 31.539,22.604 31.539,22.266 31.264,22.01 30.835,22.01 30.169,22.01 28.96,22.63 27.737,22.63 27.858,22.721 28.058,22.817 28.298,22.908 27.583,23.551 27.105,24.415 26.923,25.339 L 25.053,28.331 C 24.738,28.833 24.074,29.816 23.073,30.583 24.283,30.583 25.085,30.61 26.109,28.991 L 27.068,27.457 C 27.139,27.656 27.226,27.85 27.329,28.04 L 25.422,31.091 C 25.105,31.597 24.447,32.571 23.442,33.343 24.652,33.343 25.454,33.371 26.478,31.753 L 28.119,29.125 C 28.242,29.256 28.371,29.384 28.507,29.506 L 26.191,33.214 C 25.873,33.721 25.219,34.693 24.212,35.464 25.422,35.464 26.224,35.493 27.247,33.874 L 29.505,30.259 C 29.654,30.353 29.806,30.444 29.964,30.53 L 27.207,34.941 C 26.889,35.448 26.235,36.417 25.228,37.191 26.438,37.191 27.24,37.219 28.264,35.601 L 31.102,31.058 C 31.27,31.122 31.44,31.184 31.613,31.239 L 28.406,36.372 C 28.093,36.872 27.424,37.859 26.428,38.622 27.637,38.622 28.44,38.65 29.463,37.032 L 32.881,31.562 C 32.916,31.568 32.95,31.573 32.984,31.58 33.077,31.876 33.142,32.152 33.142,32.427 33.142,34.146 32.014,35.664 30.66,36.836 30.747,36.874 30.898,36.887 31.037,36.887 31.317,36.887 31.497,36.872 31.624,36.85 31.31,37.563 30.636,38.484 30.296,38.96 29.853,38.88 29.208,38.818 28.786,38.818 28.344,38.818 28.294,39.076 28.294,39.307 28.294,39.708 28.482,40.027 28.7,40.205 28.782,40 28.947,39.726 29.763,39.726 29.779,39.726 29.807,39.728 29.845,39.731 29.607,39.996 28.86,40.6 28.86,41.086 28.86,41.408 29.213,41.891 29.678,41.891 29.651,41.787 29.654,41.692 29.654,41.62 29.654,41.226 30.003,40.765 30.298,40.443 30.289,40.539 30.294,40.529 30.294,40.641 30.294,41.572 30.378,42 30.969,42 31.259,42 31.459,41.841 31.528,41.793 31.144,41.44 31.124,41.162 31.124,40.64 31.125,40.504 31.126,40.371 31.128,40.188 31.129,40.068 31.127,39.91 31.108,39.796 31.319,39.767 31.405,39.767 31.568,39.767 31.568,39.767 32.407,39.7 32.61,40.137 32.838,39.928 33.169,39.633 33.169,39.308 33.169,39.093 33.067,38.85 32.634,38.85 32.47,38.85 31.955,38.95 31.524,38.95 31.64,38.693 32.155,37.939 32.602,37.392 32.67,37.604 32.775,37.833 33.009,38.021 33.042,37.669 33.248,36.556 33.798,35.905 33.862,36.345 33.948,36.796 33.948,37.747 33.948,40.061 33.392,41.77 32.211,42.096 32.365,42.363 32.69,42.604 33.027,42.604 33.459,42.604 33.694,42.115 33.934,41.654 34.059,41.994 34.404,42.828 34.75,42.828 35.096,42.828 35.442,41.994 35.567,41.654 35.806,42.115 36.042,42.604 36.474,42.604 36.811,42.604 37.136,42.363 37.29,42.096 36.109,41.77 35.552,40.061 35.552,37.747 35.552,36.796 35.638,36.345 35.702,35.905 36.253,36.556 36.46,37.669 36.491,38.021 36.726,37.833 36.832,37.604 36.899,37.392 37.345,37.939 37.861,38.693 37.977,38.95 37.546,38.95 37.03,38.85 36.867,38.85 36.435,38.85 36.333,39.093 36.333,39.308 36.333,39.633 36.664,39.928 36.892,40.137 37.093,39.7 37.934,39.767 37.934,39.767 38.096,39.767 38.182,39.767 38.394,39.796 38.374,39.91 38.373,40.068 38.374,40.188 38.376,40.371 38.376,40.504 38.377,40.64 38.377,41.162 38.357,41.44 37.973,41.793 38.042,41.841 38.242,42 38.532,42 39.123,42 39.208,41.572 39.208,40.641 39.208,40.529 39.211,40.539 39.203,40.443 39.498,40.765 39.847,41.226 39.847,41.62 39.847,41.692 39.851,41.787 39.822,41.891 40.288,41.891 40.642,41.408 40.642,41.086 40.642,40.6 39.895,39.996 39.655,39.731 39.694,39.728 39.722,39.726 39.737,39.726 40.554,39.726 40.719,40 40.801,40.205 41.019,40.027 41.207,39.708 41.207,39.307 41.207,39.076 41.157,38.818 40.715,38.818 40.293,38.818 39.649,38.88 39.205,38.96 38.864,38.484 38.192,37.563 37.877,36.85 38.004,36.872 38.185,36.887 38.464,36.887 38.604,36.887 38.754,36.874 38.841,36.836 37.487,35.664 36.359,34.146 36.359,32.427 36.359,32.152 36.424,31.876 36.517,31.58 36.55,31.573 36.586,31.568 36.62,31.562 L 40.038,37.032 C 41.061,38.65 41.864,38.622 43.073,38.622 42.077,37.859 41.408,36.872 41.095,36.372 L 37.887,31.239 C 38.061,31.184 38.232,31.122 38.4,31.058 L 41.237,35.601 C 42.261,37.219 43.063,37.191 44.273,37.191 43.266,36.417 42.612,35.448 42.294,34.941 L 39.538,30.53 C 39.694,30.444 39.847,30.353 39.995,30.259 L 42.254,33.874 C 43.278,35.493 44.079,35.464 45.289,35.464 44.282,34.693 43.629,33.721 43.31,33.214 L 40.994,29.506 C 41.13,29.384 41.26,29.256 41.381,29.125 L 43.024,31.753 C 44.047,33.371 44.849,33.343 46.059,33.343 45.053,32.571 44.397,31.597 44.079,31.091 L 42.173,28.04 C 42.275,27.85 42.362,27.656 42.434,27.457 z"/>
			<path d="M 56,42 H 52.5 V 22 H 56 z"/>
			<path d="M 56,62 H 52.5 V 42 H 56 z" style="fill:#FF0000"/>
			<path d="M 56,82 H 52.5 V 62 H 56 z" style="fill:#FFCC00"/>
		</g>
	</g>
</svg>